<svg width="372" height="396" viewBox="0 0 372 396" fill="none" xmlns="http://www.w3.org/2000/svg">
<rect width="372" height="396" fill="#1E1E1E"/>
<path d="M41.856 388.057L39.648 387.961V382.105C40.032 382.169 40.608 382.201 41.376 382.201C43.808 382.201 45.472 381.657 46.368 380.569C47.264 379.417 47.712 377.817 47.712 375.769V358.681C47.712 354.329 45.088 352.153 39.84 352.153C37.6 352.153 35.488 352.441 33.504 353.017V395.065H27.36V387.577C24.8 388.217 22.432 388.537 20.256 388.537C11.232 388.537 6.72 384.537 6.72 376.537V358.681C6.72 350.681 11.232 346.681 20.256 346.681C21.408 346.681 22.368 346.777 23.136 346.969V352.441C22.112 352.313 21.28 352.249 20.64 352.249C15.392 352.249 12.768 354.425 12.768 358.777V376.441C12.768 380.793 15.392 382.969 20.64 382.969C22.816 382.969 25.056 382.681 27.36 382.105V338.041H8.34465e-07V332.665H60.48V338.041H33.504V347.545C35.296 346.905 37.536 346.585 40.224 346.585C49.248 346.585 53.76 350.585 53.76 358.585V376.057C53.76 379.705 52.8 382.617 50.88 384.793C48.96 386.969 45.952 388.057 41.856 388.057ZM65.091 338.041H55.875V332.665H80.547V338.041H71.331V395.065H65.091V338.041ZM85.2495 332.665V328.921C85.2495 316.761 92.3215 310.681 106.466 310.681C115.17 310.681 123.81 312.505 132.386 316.153V321.817C121.89 318.233 113.634 316.441 107.618 316.441C101.602 316.441 97.4095 317.465 95.0415 319.513C92.6735 321.497 91.4895 324.665 91.4895 329.017V332.665H100.61V338.041H91.3935V395.065H85.1535V338.041H75.9375V332.665H85.2495ZM96 332.665H140.928V338.041H131.712V395.065H125.856V387.193C123.744 387.961 121.024 388.345 117.696 388.345C107.712 388.345 102.72 384.185 102.72 375.865V359.065C102.72 350.745 107.648 346.585 117.504 346.585C120.768 346.585 123.552 347.001 125.856 347.833V338.041H96V332.665ZM117.888 352.057C112.576 352.057 109.6 353.881 108.96 357.529L125.856 370.969V353.305C123.552 352.473 120.896 352.057 117.888 352.057ZM108.768 375.673C108.768 380.473 111.808 382.873 117.888 382.873C121.088 382.873 123.744 382.489 125.856 381.721V376.441L108.768 362.809V375.673ZM143.513 380.281V361.561C143.513 357.593 144.601 354.521 146.777 352.345C149.017 350.105 152.473 348.985 157.145 348.985C161.881 348.985 165.241 350.457 167.225 353.401C169.401 350.457 172.953 348.985 177.881 348.985C180.441 348.985 182.777 349.433 184.889 350.329V338.041H136.313V332.665H200.345V338.041H191.129V395.065H184.889V356.089C182.969 355.193 180.729 354.745 178.169 354.745C172.985 354.745 170.393 356.985 170.393 361.465V375.193H164.153V361.465C164.153 356.985 161.753 354.745 156.953 354.745C154.201 354.745 152.313 355.353 151.289 356.569C150.265 357.721 149.753 359.417 149.753 361.657V380.185C149.753 383.129 150.425 385.401 151.769 387.001C153.177 388.601 155.769 389.401 159.545 389.401C161.401 389.401 163.225 389.273 165.017 389.017V394.585C163.289 394.905 161.401 395.065 159.353 395.065C148.793 395.065 143.513 390.137 143.513 380.281ZM248.498 345.145C248.498 339.385 245.458 336.505 239.378 336.505H229.682V389.017H239.378C245.458 389.017 248.498 386.073 248.498 380.185V345.145ZM222.866 330.553H239.762C244.882 330.553 248.754 331.865 251.378 334.489C254.002 337.113 255.314 340.633 255.314 345.049V380.377C255.314 384.921 254.034 388.505 251.474 391.129C248.914 393.753 245.074 395.065 239.954 395.065H222.866V330.553ZM266.531 381.145V354.457C266.531 349.913 267.811 346.297 270.371 343.609C272.995 340.857 276.931 339.481 282.179 339.481C287.427 339.481 291.299 340.857 293.795 343.609C296.355 346.297 297.635 349.913 297.635 354.457V371.161H273.251V380.857C273.251 383.737 274.147 385.881 275.939 387.289C277.731 388.697 280.515 389.401 284.291 389.401C288.067 389.401 291.971 388.825 296.003 387.673V394.009C292.803 395.033 288.995 395.545 284.579 395.545C272.547 395.545 266.531 390.745 266.531 381.145ZM273.251 365.497H291.107V354.457C291.107 348.441 288.131 345.433 282.179 345.433C276.227 345.433 273.251 348.441 273.251 354.457V365.497ZM331.191 340.441H338.103L326.007 395.065H316.407L304.311 340.441H311.319L316.599 365.497L321.303 390.265C323.223 379.641 326.519 363.033 331.191 340.441ZM342.398 353.305C342.398 348.825 343.678 345.497 346.238 343.321C348.798 341.081 352.99 339.961 358.814 339.961C362.398 339.961 365.95 340.505 369.47 341.593V347.929C366.27 346.777 362.75 346.201 358.91 346.201C355.07 346.201 352.478 346.777 351.134 347.929C349.79 349.017 349.118 350.873 349.118 353.497V355.993C349.118 358.041 349.502 359.609 350.27 360.697C351.102 361.785 352.606 362.809 354.782 363.769L363.038 367.801C368.798 370.617 371.678 374.521 371.678 379.513V382.105C371.678 391.065 365.886 395.545 354.302 395.545C349.95 395.545 346.11 395.033 342.782 394.009V387.673C346.11 388.825 349.79 389.401 353.822 389.401C357.918 389.401 360.766 388.793 362.366 387.577C364.03 386.297 364.862 384.441 364.862 382.009V380.089C364.862 378.297 364.446 376.921 363.614 375.961C362.782 374.937 361.15 373.849 358.718 372.697L350.462 368.761C345.086 366.201 342.398 362.137 342.398 356.569V353.305Z" fill="#F5F5F5"/>
<g filter="url(#filter0_d_34_2)">
<path d="M80.9441 39.0645C80.9441 268.565 80.9441 39.0645 80.9441 268.565L295.944 39.0645H248.444L179.944 112.065L295.944 268.565C248.444 268.565 248.444 268.565 248.444 268.565C80.9441 39.0645 248.444 268.565 80.9441 39.0645Z" stroke="white" stroke-width="17" shape-rendering="crispEdges"/>
</g>
<defs>
<filter id="filter0_d_34_2" x="36.4441" y="0" width="307.11" height="341.071" filterUnits="userSpaceOnUse" color-interpolation-filters="sRGB">
<feFlood flood-opacity="0" result="BackgroundImageFix"/>
<feColorMatrix in="SourceAlpha" type="matrix" values="0 0 0 0 0 0 0 0 0 0 0 0 0 0 0 0 0 0 127 0" result="hardAlpha"/>
<feOffset dx="-4" dy="19"/>
<feGaussianBlur stdDeviation="16"/>
<feComposite in2="hardAlpha" operator="out"/>
<feColorMatrix type="matrix" values="0 0 0 0 0 0 0 0 0 0 0 0 0 0 0 0 0 0 0.82 0"/>
<feBlend mode="normal" in2="BackgroundImageFix" result="effect1_dropShadow_34_2"/>
<feBlend mode="normal" in="SourceGraphic" in2="effect1_dropShadow_34_2" result="shape"/>
</filter>
</defs>
</svg>
